PathFileType	4	(X/Y/Z)	./resultDataOpenSim/trcMotMarkerGrf/sub10/qtm-02-05.trc
DataRate	CameraRate	NumFrames	NumMarkers	Units	OrigDataRate	OrigDataStartFrame	OrigNumFrames
250.000000	250.000000	6	24	m	250.000000	393	523
Frame#	Time	L.Toe.Tip			R.Toe.Tip			L.Ankle.Lat			R.Ankle.Lat			L.Ankle.Med			R.Ankle.Med			L.Heel			R.Heel			L.Knee.Lat			R.Knee.Lat			L.Knee.Med			R.Knee.Med			L.Thigh.Upper			R.Thigh.Upper			L.ASIS			R.ASIS			V.Sacral			L.Acromium			R.Acromium			C7			L.Elbow			R.Elbow			L.Wrist.Lat			R.Wrist.Lat
		X1	Y1	Z1	X2	Y2	Z2	X3	Y3	Z3	X4	Y4	Z4	X5	Y5	Z5	X6	Y6	Z6	X7	Y7	Z7	X8	Y8	Z8	X9	Y9	Z9	X10	Y10	Z10	X11	Y11	Z11	X12	Y12	Z12	X13	Y13	Z13	X14	Y14	Z14	X15	Y15	Z15	X16	Y16	Z16	X17	Y17	Z17	X18	Y18	Z18	X19	Y19	Z19	X20	Y20	Z20	X21	Y21	Z21	X22	Y22	Z22	X23	Y23	Z23	X24	Y24	Z24

393	1.568	0.98919933	0.058514357	-0.11049842	0.82221034	0.0382851	0.065480656	0.86266557	0.10267064	-0.11278873	0.68128427	0.058007828	0.10840156	0.88995836	0.11969413	-0.032846384	0.69856283	0.084134715	0.024311947	0.80254882	0.078091771	-0.058177977	0.6274039	0.036127758	0.064534321	0.95524859	0.47687608	-0.13693691	0.78106814	0.44943256	0.14340943	0.99079448	0.45498332	-0.019304348	0.78540338	0.45296053	0.014832455	0.83439334	0.84016818	-0.18331853	0.80821286	0.86679545	0.19639146	0.87277078	0.95375938	-0.11987005	0.88210757	0.95826475	0.12463538	0.67938657	0.96556557	0.00098293272	0.80425636	1.4326209	-0.13709545	0.79313847	1.4209986	0.18505307	0.71906935	1.4516123	0.018065778	0.68577093	1.114636	-0.21879209	0.7343173	1.0699502	0.25409117	0.80062202	0.89881147	-0.24770802	0.92736653	0.91792084	0.30199901
394	1.572	1.0076392	0.05886708	-0.11088323	0.82217138	0.038335891	0.065548669	0.88000108	0.099547952	-0.11266028	0.68128115	0.05804305	0.1083324	0.9084062	0.11760065	-0.032887297	0.6987309	0.084177139	0.024281317	0.82069128	0.073382759	-0.058020518	0.62731205	0.036252757	0.064215386	0.96270625	0.477019	-0.13679994	0.78246126	0.4491992	0.14348995	0.99906822	0.45510461	-0.019363296	0.7870307	0.45258531	0.014912603	0.84072646	0.84010744	-0.18348295	0.81159846	0.86637734	0.19620244	0.87892174	0.95341988	-0.11932902	0.88635251	0.95780128	0.12495958	0.68492129	0.96495337	0.0012583072	0.80949111	1.4320055	-0.13720005	0.79802488	1.420457	0.18501597	0.72413079	1.4510702	0.017876515	0.68953928	1.1149493	-0.21921894	0.74280905	1.0688021	0.25496123	0.80175689	0.89787687	-0.24905449	0.93879392	0.91957317	0.30099027
395	1.576	1.026067	0.059345247	-0.11118594	0.8221037	0.038368308	0.06558957	0.89742871	0.096566262	-0.11253162	0.6812682	0.058073129	0.10826904	0.92719411	0.1156315	-0.033335577	0.69882883	0.084204148	0.024222365	0.83902869	0.068865839	-0.057869735	0.6272512	0.036343675	0.064047902	0.97010648	0.47704521	-0.13670764	0.78393216	0.44893381	0.14352956	1.0067211	0.45508115	-0.019527683	0.78867335	0.45220146	0.014952828	0.84707213	0.83996358	-0.1836331	0.81498387	0.86588703	0.19596266	0.8850713	0.95301493	-0.11880623	0.89059512	0.95730628	0.12528787	0.69043218	0.96434675	0.001542628	0.81473864	1.4313212	-0.13732169	0.80291883	1.4198376	0.18497037	0.72919811	1.4504763	0.017690953	0.69333504	1.1152033	-0.21963963	0.75144274	1.0676065	0.25587164	0.80279028	0.89692521	-0.25030124	0.9501526	0.92119515	0.29994549
396	1.58	1.0444775	0.059956692	-0.11139999	0.82200528	0.038367	0.06559569	0.91490257	0.093730637	-0.11243188	0.68125331	0.058096405	0.10820695	0.9458428	0.11372218	-0.033836484	0.69888041	0.084217277	0.024142404	0.85752259	0.06456557	-0.057695331	0.62719741	0.036416119	0.063992185	0.97745141	0.47695105	-0.13666226	0.78548402	0.44863067	0.14351533	1.0138973	0.4549351	-0.019639001	0.79033999	0.45182383	0.014949406	0.85343269	0.83973768	-0.18377662	0.81840664	0.8653548	0.19577544	0.89121701	0.95254557	-0.11830488	0.89483675	0.95677741	0.12561468	0.69585034	0.9637686	0.0014438179	0.81999921	1.4305707	-0.13745979	0.8078319	1.4191437	0.18491747	0.73426962	1.449835	0.017511617	0.69715689	1.1153985	-0.22005148	0.76021771	1.0662811	0.25697162	0.80359567	0.89594525	-0.25136943	0.9613643	0.92276205	0.2988567
397	1.584	1.0628586	0.060720498	-0.11152161	0.8218728	0.038338561	0.065568939	0.93240448	0.091066288	-0.11236627	0.68124297	0.058111936	0.10814202	0.9637699	0.11183311	-0.033985912	0.69891394	0.084219295	0.024052787	0.87609028	0.060539884	-0.057533187	0.62714817	0.036477724	0.06395461	0.9847433	0.47673297	-0.13666596	0.78710413	0.44829007	0.143467	1.0208159	0.45467263	-0.019698863	0.79207023	0.45147542	0.014939604	0.8598103	0.83943079	-0.18391884	0.82185908	0.86477694	0.19575946	0.89735646	0.95201288	-0.11782841	0.89907735	0.95621008	0.1259381	0.70115398	0.96316153	0.0008348398	0.82527586	1.4297586	-0.13760496	0.81277135	1.4183807	0.18485842	0.73934544	1.4491516	0.017334983	0.70100347	1.1155355	-0.22045187	0.76908844	1.0647628	0.25840166	0.80424618	0.89493828	-0.25229833	0.97242538	0.9242637	0.29772744
398	1.588	1.0811928	0.061666424	-0.11155154	0.8217114	0.038305333	0.065515548	0.94994829	0.088610672	-0.11231249	0.68123859	0.058120977	0.1080736	0.98096161	0.11006375	-0.033717079	0.69894319	0.084212181	0.02396022	0.89460845	0.056878303	-0.057551905	0.627104	0.036529638	0.063891506	0.99198453	0.47638747	-0.13672078	0.78877812	0.44792118	0.14342027	1.0276068	0.45429626	-0.019756285	0.7939022	0.45116055	0.014963667	0.86619699	0.83904264	-0.18406443	0.8253855	0.86413578	0.19586175	0.90348724	0.95141795	-0.1173808	0.90331727	0.95560019	0.12626014	0.70635881	0.96245361	-0.00016432706	0.83056913	1.4288878	-0.13774818	0.81773651	1.4175549	0.18479144	0.74443047	1.4484147	0.017154992	0.70487349	1.1156147	-0.22083823	0.77799089	1.0631097	0.26006332	0.80494107	0.89391833	-0.25320112	0.98338522	0.92571244	0.29656508
